<?xml version="1.0" encoding="UTF-8"?><svg id="Layer_2" xmlns="http://www.w3.org/2000/svg" viewBox="0 0 298.86 298.86"><g id="shop"><g><circle cx="149.43" cy="149.43" r="149.43" fill="#fff"/><path d="m200.68,87.62c3.02,3.1,3.8,7.68,4.4,11.97,1.93,13.74,3.54,27.52,4.84,41.32.64,6.75,1.2,13.52,1.38,20.3.3,11.49-.5,22.97-1.3,34.44-.06.81-.12,1.66-.53,2.37-.35.61-.93,1.06-1.5,1.49-9.61,7.23-20.46,12.8-31.93,16.39l-10.4-88.24,7.44-56.27" fill="#c57147"/><path d="m108.59,54.95c-.19-8.45-1.47-16.87-3.8-24.99,31.93,11.44,64.76,20.35,98.1,26.61.74.14,1.58.34,1.97.98.31.5.26,1.14.19,1.73-1.05,9.89-2.1,19.78-3.14,29.67" fill="#e9916a"/><path d="m109.2,54.74c-9.56,38.02-16.63,76.66-21.14,115.61-.23,1.97-.42,4.1.61,5.8.83,1.37,2.3,2.2,3.71,2.97,26.94,14.68,54.25,29.51,84.02,36.89,7.52-39.79-.88-82.62,14.55-120.07,1.65-4,4.51-8.52,8.84-8.37" fill="#e9916a"/><path d="m128.45,164c4.72.63,11.66.46,16.12-1.2,4.46-1.66,8.94-5.74,11.35-9.85,3.61-6.17,4.39-14.87,2.37-21.73-1.45-4.94-3.75-8.06-7.23-11.86-3.48-3.8-9.78-6.58-14.9-7.18l.05-.18c-7.44.67-14.79,3.49-20.31,8.52s-9.09,12.34-8.98,19.81c.08,5.41,2.09,10.77,5.58,14.91,3.49,4.13,8.44,7.01,13.76,8" fill="#e05d50"/><path d="m143.85,137.76c1.35-2.45,1.72-5.42.99-8.13-.07-.28-.22-.61-.51-.64-.17-.02-.34.08-.48.18-1.7,1.18-3.13,2.74-4.16,4.53-3.22-.9-6.52-1.49-9.85-1.74l-.6-.45c.25-2.43.04-4.91-.61-7.26-2.88,1.39-4.97,4.28-5.39,7.45-4.9,3.05-6.78,10.11-4.04,15.19,1.9,3.53,5.57,5.85,9.42,6.93,4.56,1.28,9.83.89,13.51-2.09,3.68-2.98,5.04-8.89,2.17-12.65" fill="#d8a9a6"/><path d="m200.61,77.24c-18.81-7.46-37.62-14.92-56.43-22.38l-4.88-1.67c-9.92-3.71-20.19-6.53-30.62-8.4l1.08,7.93c30.51,5.3,57.42,22.6,86.39,33.52l4.46-9Z" fill="#e05d50"/><path d="m109.23,54.95c.11-4.29-.04-8.6-.62-12.85-.58-4.23-1.44-8.41-2.6-12.52l-1.75,1.75c8.23,2.98,16.53,5.75,24.88,8.36s16.83,5.08,25.32,7.35,16.95,4.36,25.48,6.29c4.27.96,8.55,1.88,12.83,2.75,2.16.44,4.33.87,6.49,1.29,1.05.2,2.11.4,3.16.6.3.06.77.17.91.25.16.08.17.2.12.06.06.15.04.23.04.4-.02,1.07-.21,2.16-.32,3.23s-.24,2.23-.36,3.35c-.24,2.27-.48,4.55-.72,6.82-.48,4.51-.96,9.01-1.43,13.52-.12,1.12-.24,2.23-.36,3.35-.08.78.72,1.44,1.44,1.44.85,0,1.36-.67,1.44-1.44.97-9.17,1.94-18.34,2.92-27.51.22-2.08.83-4.72-1.53-5.81-.92-.43-1.96-.54-2.95-.73-1.1-.21-2.21-.42-3.31-.64-4.37-.86-8.73-1.76-13.08-2.7-8.7-1.89-17.36-3.97-25.98-6.22-8.62-2.25-17.18-4.68-25.7-7.29s-16.97-5.42-25.37-8.35c-1.06-.37-2.12-.74-3.18-1.12s-2.04.76-1.75,1.75c2.31,7.99,3.77,16.31,4.37,24.61.07,1.02,1.57,1.04,1.6,0h0Z" fill="#3a0a0a"/><path d="m108.39,54.57c-2.49,7.07-4.2,14.38-5.9,21.68-1.69,7.3-3.24,14.63-4.71,21.98-2.94,14.7-5.49,29.47-7.67,44.3-1.09,7.39-2.08,14.79-2.99,22.2-.23,1.87-.45,3.75-.67,5.62-.18,1.59-.31,3.21.08,4.78.86,3.41,4.22,4.84,7.03,6.37,12.41,6.76,24.85,13.48,37.65,19.48,12.8,6,25.98,11.31,39.61,15.1,1.67.46,3.34.9,5.02,1.32.71.18,1.63-.23,1.78-1.01,3.34-17.73,3.59-35.82,4.12-53.79s1.28-35.42,5.83-52.54c1.24-4.68,2.74-9.33,4.63-13.79,1.3-3.06,3.57-7.31,7.42-7.24,1.86.03,1.86-2.86,0-2.89-3.9-.07-6.76,2.86-8.59,6.01-1.02,1.75-1.76,3.65-2.49,5.54-.82,2.12-1.57,4.27-2.25,6.44-2.71,8.59-4.36,17.47-5.43,26.41-2.17,18.12-1.87,36.41-2.76,54.62-.5,10.21-1.36,20.42-3.26,30.48l1.78-1.01c-13.49-3.36-26.56-8.24-39.22-13.95-12.66-5.71-24.94-12.2-37.15-18.81-1.57-.85-3.14-1.7-4.7-2.55-1.39-.76-2.83-1.46-4.15-2.32-1.2-.78-2.01-1.78-2.19-3.23-.19-1.58.12-3.23.3-4.79.86-7.32,1.81-14.62,2.85-21.91,2.08-14.53,4.52-29,7.29-43.41,2.78-14.47,6.17-28.81,9.1-43.25.37-1.81.65-3.62.93-5.45.13-.84-1-1.18-1.29-.36h0Z" fill="#3a0a0a"/><path d="m175.88,216.69c.56-.03,1.17,0,1.71-.13.59-.14,1.17-.31,1.75-.48,1.13-.33,2.23-.71,3.33-1.12,2.24-.83,4.45-1.74,6.62-2.74,4.23-1.94,8.33-4.15,12.26-6.64,1.98-1.25,3.92-2.57,5.81-3.95.94-.68,1.99-1.34,2.74-2.24.87-1.05,1.08-2.3,1.18-3.62.39-5.22.73-10.44.99-15.66.53-10.51.45-20.97-.38-31.46-.82-10.42-1.95-20.82-3.2-31.19-.63-5.25-1.31-10.5-2.03-15.73-.58-4.25-.99-8.76-3.18-12.55-.54-.93-1.19-1.79-1.94-2.57-1.29-1.35-3.33.7-2.04,2.04,2.73,2.85,3.4,6.99,3.94,10.74.72,4.97,1.36,9.95,1.98,14.93,1.25,10.12,2.35,20.26,3.25,30.41.9,10.18,1.29,20.33.93,30.54-.19,5.15-.5,10.29-.85,15.43-.09,1.27-.17,2.55-.26,3.82-.06.92.06,2.22-.54,2.99s-1.61,1.35-2.4,1.92c-.92.66-1.85,1.31-2.79,1.95-3.79,2.56-7.75,4.88-11.83,6.94s-8.19,3.69-12.35,5.4c-.49.2-.98.41-1.48.6-.58.23-1.07.6-1.6.92-.63.38-.41,1.51.39,1.46h0Z" fill="#3a0a0a"/><path d="m109.54,54.88c5.8,1.51,11.61,3.07,17.31,4.92s11.35,3.95,16.9,6.26c11.14,4.63,21.97,9.97,32.96,14.94,6.27,2.84,12.6,5.57,19.05,8.01.73.28,1.58-.31,1.78-1.01.22-.81-.28-1.5-1.01-1.78-11.36-4.29-22.33-9.52-33.33-14.62-10.99-5.09-22.06-10.1-33.57-13.9-6.48-2.14-13.07-3.79-19.87-4.42-.93-.09-1.09,1.38-.22,1.6h0Z" fill="#3a0a0a"/><path d="m143.88,56.74c3.65,1.61,7.25,3.34,10.92,4.91s7.29,3.12,10.95,4.62c7.29,2.98,14.61,5.85,21.93,8.76,4.18,1.66,8.36,3.32,12.54,4.98.73.29,1.59-.32,1.78-1.01.23-.82-.28-1.49-1.01-1.78-14.7-5.83-29.35-11.78-44.19-17.23-4.13-1.52-8.32-2.86-12.47-4.33-.63-.22-1.08.81-.46,1.09h0Z" fill="#3a0a0a"/><path d="m139.62,54.01c-7.35-3.85-15.49-6.04-23.55-7.83-2.32-.52-4.65-1.02-7-1.4-.77-.12-1.55.2-1.77,1.01-.19.71.24,1.62,1.01,1.77,4.07.81,8.13,1.6,12.16,2.62s7.95,2.09,11.88,3.25c2.25.66,4.51,1.21,6.79,1.75.68.16,1.15-.81.49-1.16h0Z" fill="#3a0a0a"/><path d="m160.21,59.43c2.71,1.08,5.4,2.13,8.16,3.07s5.49,1.86,8.24,2.77c5.42,1.79,10.85,3.57,16.23,5.48,3.1,1.1,6.18,2.23,9.26,3.39.73.27,1.58-.31,1.78-1.01.22-.81-.28-1.5-1.01-1.78-5.42-2.04-10.87-3.98-16.36-5.83s-10.85-3.57-16.38-4.99c-3.21-.82-6.4-1.48-9.67-2.02-.6-.1-.81.68-.25.91h0Z" fill="#3a0a0a"/><path d="m198.99,140.42c-.49-12.94-.49-25.98.63-38.88.31-3.58.71-7.15,1.21-10.7.11-.77-.19-1.55-1.01-1.78-.67-.19-1.67.23-1.78,1.01-1.81,13.05-2.57,26.31-1.5,39.46.3,3.7.79,7.37,1.38,11.03.1.6,1.08.46,1.06-.14h0Z" fill="#3a0a0a"/><path d="m197.27,145.47c.36,4,.55,8.03.8,12.04s.39,8.08.4,12.13c0,8.04-.63,16.09-1.94,24.02-.37,2.26-.8,4.51-1.28,6.75s-1.13,4.45-1.55,6.7c-.33,1.76,2.11,2.46,2.7.74.66-1.94,1.05-4,1.48-6,.43-1.98.82-3.96,1.17-5.96.71-4.07,1.26-8.18,1.64-12.3.75-8.16.92-16.43.16-24.59-.22-2.32-.49-4.62-.89-6.91s-.92-4.53-1.48-6.78c-.16-.66-1.26-.54-1.2.16h0Z" fill="#3a0a0a"/><path d="m144.4,138.19c.84-1.32,1.45-2.84,1.68-4.39s.31-3.45-.34-4.93c-1.63-3.73-6.46,2.59-7.4,4.15l1.55-.63c-3.33-.97-6.77-1.54-10.22-1.82l.71.19-.6-.45.7,1.22c.25-2.56.02-5.15-.65-7.64-.25-.94-1.28-1.25-2.09-.85-3.18,1.56-5.56,4.77-6.06,8.29l.66-.86c-3.44,2.18-5.49,5.9-5.94,9.9s1.24,8.22,4.36,10.97c6.32,5.57,18.31,6.96,23.93-.36,2.7-3.52,3.46-8.9.69-12.61-.47-.62-1.25-.94-1.98-.52-.62.36-.99,1.35-.52,1.98,1.16,1.55,1.51,3.15,1.3,5.09-.17,1.58-1,3.48-2.12,4.74-2.84,3.2-7.58,3.92-11.58,3.18s-8.3-2.96-10.28-6.79c-.81-1.57-1.09-3.33-.96-5.18.12-1.72.74-3.54,1.74-5.1.53-.81,1.21-1.59,2.06-2.27.39-.32,1.23-.69,1.42-1.39.16-.57.21-1.16.4-1.72.7-2.11,2.3-3.87,4.32-4.88l-2.09-.85c.43,1.58.67,3.18.67,4.82,0,.46-.01.92-.04,1.37-.03.48-.12.95.14,1.4.2.34.74.73,1.1.94.41.25.95.21,1.42.25.43.04.85.08,1.28.13.8.09,1.6.21,2.4.34,1.72.29,3.43.68,5.12,1.13.58.16,1.25-.1,1.55-.63.49-.86,1.05-1.66,1.73-2.39.62-.67,1.37-1.5,2.21-1.89l-.65.18c-.75.09-.53-.55-.52-.23,0,.16.09.34.13.5.07.33.14.67.19,1,.09.63.1,1.28.07,1.92-.07,1.33-.34,2.64-.9,3.85-.44.96.85,1.76,1.44.84h0Z" fill="#3a0a0a"/><path d="m110.31,140.89c1.85.31,3.73.48,5.59.74.93.13,1.87.26,2.8.41s1.94.37,2.9.25c1.18-.15,1.39-1.58.28-2.04-.89-.36-1.91-.4-2.87-.47s-1.89-.12-2.83-.17c-1.89-.09-3.8-.18-5.68-.06-.71.05-.98,1.2-.18,1.34h0Z" fill="#3a0a0a"/><path d="m113.18,145.33c1.29.03,2.58.09,3.87.19.63.05,1.25.1,1.88.17.66.08,1.33.22,1.99.18.56-.04,1.04-.4,1.11-.98.06-.51-.25-1.14-.81-1.24-1.31-.23-2.73-.02-4.05.04s-2.66.17-3.99.28c-.85.07-.88,1.33,0,1.35h0Z" fill="#3a0a0a"/><path d="m141.78,148.32c1.5.53,3.01,1.08,4.51,1.63.71.26,1.43.51,2.13.8.74.3,1.66.9,2.48.82.51-.05.95-.28,1.15-.78.17-.43.13-1.06-.26-1.38-.7-.57-1.54-.63-2.41-.79-.82-.15-1.64-.34-2.46-.51-1.6-.34-3.21-.65-4.82-.95-.77-.14-1.06.91-.32,1.17h0Z" fill="#3a0a0a"/><path d="m140.82,150.72c.93.43,1.79.91,2.67,1.45s1.75,1.25,2.71,1.5c1.28.34,2.01-1.42.89-2.11-.84-.52-2-.67-2.95-.93s-1.93-.56-2.88-.95c-.6-.24-1.03.78-.44,1.05h0Z" fill="#3a0a0a"/><path d="m128.1,164.67c2.75.5,5.55.71,8.34.63s5.68-.33,8.31-1.26c2.93-1.03,5.61-2.84,7.85-4.97s4.04-4.49,5.32-7.21c2.55-5.44,3.24-11.64,2.35-17.56-.43-2.84-1.32-5.62-2.62-8.19s-2.98-4.67-4.8-6.74c-2.14-2.43-4.63-4.37-7.54-5.81s-6.06-2.44-9.31-2.84l1.39,1.82.05-.18c.24-.83-.45-1.91-1.39-1.82-10.63.98-20.98,6.11-26.66,15.41-2.69,4.4-4.24,9.59-4.07,14.77.18,5.51,2.21,10.84,5.67,15.13,3.59,4.45,9.04,7.85,14.73,8.71.74.11,1.49-.19,1.7-.97.19-.7-.23-1.53-.97-1.7-4.62-1.06-8.83-3.17-12.13-6.61s-5.51-8.14-6-12.94c-.99-9.54,4.34-18.68,12.27-23.74,4.63-2.96,10.01-4.67,15.46-5.18l-1.39-1.82-.05.18c-.29.99.49,1.72,1.39,1.82,2.29.28,4.94,1.08,7.17,2.11s4.57,2.44,6.37,4.28c3.61,3.69,6.41,7.95,7.58,13.03,1.2,5.21.81,10.88-1.03,15.9-1.87,5.1-5.92,9.57-10.75,12.04-2.52,1.29-5.41,1.86-8.21,2.16s-5.91.4-8.84.16c-.78-.06-.96,1.23-.19,1.37h0Z" fill="#3a0a0a"/><path d="m126.02,141.15c.16-.25.15-.59,0-.84-.04-.06-.08-.12-.13-.17.2.24-.02-.04-.05-.07-.11-.13-.28-.21-.44-.26-.46-.15-.94.16-1.18.53-.2.32-.25.71-.16,1.08.15.59.64,1.02,1.22,1.16.74.17,1.53-.14,1.93-.8.79-1.28-.12-3.14-1.67-3.12-.94.01-1.69.79-1.81,1.69-.11.8.25,1.57.95,1.99.82.49,1.93.28,2.51-.47.65-.84.54-2.12-.4-2.7-.86-.53-2.22.15-2.13,1.22.02.21.07.4.11.6l-.05-.38c0,.06,0,.12,0,.18l.05-.38c-.03.1-.02.08.04-.06.04-.12.11-.23.2-.31l.19-.15c.25-.09.3-.12.16-.09l.38-.05s-.08,0-.13,0l.38.05s-.08-.01-.13-.03c.12.03.23.08.32.16.1.07.18.15.24.26.09.25.11.3.08.16l.05.38c0-.07,0-.12,0-.19l-.05.38c.01-.06.08-.25-.02-.01-.06.13-.06.15-.01.06l-.14.18c-.26.25-.68.31-1.01.18-.1-.03-.19-.08-.26-.16l-.12-.17s.13.26.03.02c-.04-.11-.05-.13-.03-.06.03.1.02.04-.02-.18-.01.04-.02.28.01.02,0-.07.01-.14.05-.2.05-.11.06-.12.01-.04.01-.02.19-.22.08-.11.07-.08.16-.14.26-.17.11-.04.13-.05.04-.03.02,0,.32-.03.15-.03.31,0,.23.04.12,0-.18-.05.06.02.1.05.08.04.15.1.19.18.05.08.07.09.04.04-.07-.11.14.34.07.45.07-.12.01-.4,0-.51v.46l-.07.14-.46.35-.49-.11c.29.32.78.19,1-.13h0Z" fill="#3a0a0a"/><path d="m138.71,142.4c-.69-.25-1.24.41-1.23,1.06,0,.56.36,1.1.84,1.37.63.35,1.4.18,1.92-.29.49-.43.69-1.17.52-1.79-.37-1.35-2.26-1.89-3.21-.8-.46.53-.67,1.29-.42,1.97.29.78.95,1.29,1.78,1.32.72.03,1.45-.37,1.79-1,.23-.42.3-.93.18-1.4-.06-.24-.18-.46-.33-.65-.23-.29-.5-.43-.83-.57-.45-.18-1.04.04-1.36.36s-.54.91-.36,1.36c.07.17.13.33.21.49l-.15-.35c.02.06.04.11.05.17l-.05-.38s0,.08,0,.12l.05-.38s-.02.08-.03.11l.15-.34s-.03.06-.05.09l.23-.29s-.07.07-.11.11l.29-.22s-.06.04-.09.05l.34-.14c-.05.02-.1.03-.15.05l.38-.05c-.06,0-.1,0-.16,0l.38.05c-.05,0-.1-.02-.15-.04l.34.14-.05-.02c.12.06.21.15.28.26.15.2.05.07.03,0l.14.34s-.02-.07-.03-.11l.05.38c0-.06,0-.11,0-.17l-.05.38c0-.06.02-.11.04-.16l-.14.34c.06-.13.16-.18-.1.1.14-.16-.31.19-.11.09l-.33.14c.05-.02.1-.03.16-.04l-.36.05s.07,0,.11,0l-.36-.05s.11.02.11.02c-.01.03-.31-.18-.16-.07-.01,0-.24-.23-.14-.1-.1-.11-.18-.23-.22-.37,0-.03,0-.33-.02-.16,0-.02.07-.31.01-.16,0-.02.13-.27.04-.13l.11-.15c-.06.06-.06.05.03-.02.11-.07.19-.11.32-.14.19-.04.04,0,0,0-.06,0-.04,0,.05,0,.05,0,.1,0,.15.04.15.05-.04-.06.06.04.06.05.07.05.03.02-.03-.04-.03-.03.01.02.04.05.05.06.02.02-.02-.04-.02-.03,0,.02,0,0,.04.08,0-.02-.03-.09-.07-.17-.11-.25v.62l.02-.04c.15-.36.04-.7-.34-.84h0Z" fill="#3a0a0a"/><path d="m132,147.35c-.15-.3-.29-.6-.45-.89-.13-.23-.35-.49-.42-.75v.51l.03-.14-.25.42.1-.09-.42.25c.25-.06.68.12.91.19.3.1.62.23.88.43l-.36-.36.03.06v-1.01c-.09.16-.51.22-.65.26-.7.18-1.06.98-.78,1.63s1.1.99,1.71.58c.7-.47,1.96-1.5,1.44-2.46-.36-.68-1.47-.98-2.18-1.12-.87-.17-2.07-.25-2.3.85-.21,1,.93,1.93,1.6,2.5.61.52,1.48-.12,1.11-.86h0Z" fill="#3a0a0a"/><path d="m128.06,149.67c.44.79,1.43,1.04,2.25.73.97-.36,1.6-1.22,1.71-2.23.08-.72-1.07-.84-1.25-.17-.24.9-1.34,2.37-2.34,1.38-.19-.19-.51.05-.37.29h0Z" fill="#3a0a0a"/><path d="m133.59,150.22c-.39.12-.94-.26-1.08-.63-.17-.45.02-1.03.16-1.46.37-1.1-1.37-1.57-1.74-.48-.35,1.04-.21,2.18.56,2.99.32.34.73.56,1.2.59s.84-.21,1.2-.49c.25-.2-.02-.6-.3-.52h0Z" fill="#3a0a0a"/><path d="m166.21,154.78c-.33-.68-1.32-.97-1.98-.61-.95.52-.97,1.9-.28,2.63.78.82,2.08.75,2.89.03.73-.66.98-1.81.67-2.73-.38-1.15-1.58-1.8-2.75-1.43-.94.3-1.73,1.13-1.9,2.11-.19,1.13.41,2.33,1.56,2.67,1.03.31,2.13-.23,2.67-1.13s.59-2.23.06-3.13c-.74-1.27-2.51-1.36-3.32-.12-.33.51-.2,1.26.22,1.68.4.4,1.2.58,1.68.22-.47.06-.58.08-.33.08l-.62-.25c-.17-.35-.22-.44-.17-.26.03.1.03.08,0-.07,0,.13.01.27,0,.41.02-.27.03.21.03-.06l-.07.12c.03-.08.09-.13.15-.18.16-.12.41-.1.58-.02.14.05.25.15.33.29.04.15.05.17.02.07-.04-.14.01.19,0,.26-.02.17-.15.1.01.03-.12.09-.11.08.05-.02l-.29.07c-.49,0-.48-.18-.61-.44.04.14.04.17.03.07-.01-.1-.01-.08,0,.08.07-.16.11-.19,0-.08l.21-.21c-.2.11-.14.11.17,0,.18,0,.33.1.42.24.09.1.12.23.09.37-.11.28-.34.37-.69.26.6.67,1.54-.18,1.18-.91h0Z" fill="#3a0a0a"/><path d="m171.16,155.78c-.7-.24-1.5.33-1.64,1.02-.17.84.41,1.68,1.26,1.83,2,.35,3.12-2.28,1.85-3.69-.65-.71-1.73-.78-2.55-.38-.74.36-1.21,1.15-1.26,1.96s.41,1.57,1.08,1.96,1.51.43,2.24.09,1.19-1.2,1.18-2.01c-.02-.89-.57-1.88-1.5-2.06-.58-.11-1.26.07-1.55.63s-.2,1.19.22,1.67c-.21-.27-.18-.23.09.11.1.11.07.07-.08-.12.07.13.06.08-.05-.14.02.05.03.1.04.14-.03-.26-.04-.31-.04-.16.04-.26.05-.31.01-.16.11-.23.12-.27.05-.14.07-.13.18-.23.31-.31-.13.07-.08.05.14-.06.26-.02.32-.03.16-.02-.15,0-.1,0,.16.02-.14-.04-.1-.02.14.07-.13-.08-.09-.04.11.1-.1-.1-.08-.06.08.13-.07-.13-.06-.08.05.14.03.11.04.21,0,.32-.03.13-.02.14,0,.02-.1.21-.11.24-.03.11-.14.17-.16.2-.05.1-.09.1-.2.17-.33.2.15-.04.11-.03-.13.01-.13,0-.25-.03-.36-.09-.2-.12-.29-.3-.33-.52,0,.17,0,.14.02-.07-.01.06-.03.12-.05.17.02-.11.07-.2.16-.28-.1.1-.08.09.07-.03.1-.06.2-.09.31-.09.18.03.21.03.08,0,.41.17.58.44.52.81-.3.29-.36.39-.19.29.68-.36.45-1.32-.2-1.55h0Z" fill="#3a0a0a"/><path d="m174.65,160.29c-.53-.38-1.27-.17-1.69.27-.57.58-.44,1.56.13,2.09s1.48.63,2.16.2,1.07-1.24.96-2.05c-.13-.95-.93-1.61-1.89-1.61-.78,0-1.52.47-1.89,1.14-.43.77-.3,1.78.31,2.41.53.54,1.33.8,2.08.6.86-.23,1.45-1.05,1.46-1.93s-.54-1.74-1.42-1.93c-.69-.15-1.37.15-1.65.81s-.02,1.37.57,1.75c0,0-.29-.24-.16-.12.15.14-.17-.25-.11-.14.07.13-.12-.34-.08-.2.04.15-.03-.38-.03-.22.01.23.03-.15.03-.19-.04.18.09-.19.09-.19-.08.16.12-.16.13-.16.09-.1.2-.17.32-.21.13-.05.15-.06.09-.04-.07.02-.04.01.1-.01.09-.03.17-.03.26,0,.14.02.17.03.1.01-.11-.03-.04,0,.2.09-.16-.1.12.11.13.12-.14-.12.09.13.1.15-.1-.16.06.16.06.18.02.27.03.34.03.22,0-.08,0-.05-.02.09,0,.08-.02.16-.06.23-.06.12-.07.14-.03.08.07-.11-.26.25-.07.1-.03.03-.28.18-.12.1-.03.02-.32.1-.14.07l-.24.03c-.25-.04-.31-.05-.2-.03.05.02.21.07,0-.02-.19-.08-.41-.28-.49-.47-.03-.05-.08-.4-.08-.22,0-.04.05-.31,0-.14.01-.04.12-.26.03-.12l.11-.15c.16-.11.2-.14.11-.09-.06.03-.04.03.05-.02.05-.03.11-.05.18-.05.06-.02.13-.02.19,0,.1.02.13.02.06,0-.18-.05,0,0,.06.04.18.1.3.31.31.51,0,.21-.19.53-.44.52.34.02.7-.26.78-.59.08-.37-.07-.69-.37-.91h0Z" fill="#3a0a0a"/><path d="m169.64,167.31c1.01-.95,1.46-2.56,1.01-3.87s-1-2.44-2.16-3.19c-.69-.44-1.75-.76-2.55-.89-1.21-.19-2.87.21-3.81,1s-1.5,2-1.51,3.22c0,.21.02.44.13.62.18.3.57.42.92.41s.7-.1,1.05-.11c.7-.02,1.4.35,1.78.93.41.62.46,1.41.82,2.06.66,1.2,2.32,1.43,3.55.82,1.1-.55,1.8-1.85,1.78-3.36" fill="#3a0a0a"/><path d="m146.15,176.74c-.64-.5-1.55-.48-2.11.15-.68.78-.21,1.97.6,2.44.92.54,2.21.09,2.72-.81s.37-1.98-.21-2.77c-.74-1.02-2.1-1.33-3.13-.54-.83.63-1.29,1.82-1.02,2.85s1.18,1.79,2.24,1.78c1.15,0,2.07-.95,2.23-2.06s-.36-2.41-1.31-3.03c-1.02-.67-2.75-.25-2.94,1.09-.1.68.11,1.35.8,1.63.61.24,1.4.06,1.73-.57-.16.31-.6.44-.91.34-.13,0-.23-.05-.3-.16-.13-.15-.14-.14-.03.02.03.07.17.29.13.35,0,0,.02-.19.03-.21.07-.14.44-.28.58-.3.31-.03.45.19.55.42.03.06-.05.1-.05.14-.01-.14.18-.15-.09-.02-.12.09-.25.1-.4.03-.14.04-.25,0-.33-.08l-.04-.06.07.13c.02-.14-.08-.18.04-.33.1-.12.37-.18.52-.14.67.19.1,1.01-.11.92.68.28,1.32-.81.73-1.26h0Z" fill="#3a0a0a"/><path d="m151.11,175.46c-.72-.1-1.24.74-1.23,1.37.02.99,1,1.55,1.9,1.39,1.88-.34,1.96-3.24.38-4.03-.84-.42-1.87-.26-2.53.41-.56.57-.78,1.41-.6,2.18.38,1.69,2.57,2.15,3.77,1.03,1.51-1.42.16-4.3-1.93-3.77-.53.13-.92.62-.99,1.14-.07.49.16,1.15.66,1.37.04.02.08.05.13.07l.34.14-.2-.08c.23.13-.18-.17-.07-.07.12.12-.16-.25-.08-.11s-.09-.29-.05-.13,0-.33-.01-.15c0,.16.08-.39.01-.12.04-.14.11-.28.21-.38.03-.03.29-.17.12-.09.04-.02.33-.1.14-.06-.2.05.13-.02.16-.02-.26,0,.26.07.13.03-.16-.05.28.16.14.07-.06-.04-.05-.02.05.05.07.04.12.09.15.16.18.21-.04-.13.07.13.04.12.06.14.04.07-.03-.11-.02-.05.03.2,0-.2-.02.12-.03.16.05-.19-.04.11-.07.13.01-.01.07-.11.07-.13-.01.11-.22.25-.31.3.18-.11-.15.05-.24.06-.13.01-.25,0-.37-.06-.04-.02-.26-.2-.18-.12.13.13-.17-.2-.06-.06.08.1-.07-.28-.02,0-.02-.09-.01-.23-.02-.06,0-.21.12-.39.3-.5.06-.03.22-.06.07-.03.3-.06.6.06.76.33.1.17.11.22.06.41-.07.25-.02.12.02.04.15-.26.15-.58,0-.84-.16-.28-.42-.37-.72-.41h0Z" fill="#3a0a0a"/><path d="m156.17,178.08c-.66-.14-1.25.21-1.51.82-.3.71.04,1.49.71,1.84.76.4,1.67.16,2.18-.51s.56-1.53.18-2.25c-.41-.78-1.36-1.18-2.2-.89s-1.42,1.07-1.5,1.97c-.14,1.65,1.79,2.69,3.16,1.89.79-.46,1.16-1.44.88-2.31-.15-.48-.46-.89-.89-1.16s-.95-.32-1.45-.21c-.68.16-1.09.88-1,1.54.04.29.16.6.38.8.29.27.6.36.99.41h.06c-.12,0-.25-.03-.37-.04.03,0,.07.02.1.03l-.34-.14s.06.03.09.05c.19.08-.24-.23-.14-.12.07.08-.14-.27-.12-.16,0,.03.05.09.06.12l-.15-.34c.02.05.03.1.04.16l-.05-.38c0,.06,0,.11,0,.16l.05-.38s-.01.07-.03.1l.15-.34c-.07.16-.13.11.1-.11.06-.05.33-.21.11-.11l.34-.15c-.05.02-.1.03-.16.04l.38-.05c-.07,0-.15,0-.22,0l.38.05c-.06-.01-.11-.02-.16-.04l.34.15c-.07-.03-.26-.16-.04,0,.11.09.13.11.07.04.16.23.2.27.13.15l.14.34c-.02-.06-.04-.11-.05-.17l.05.38c0-.06,0-.12,0-.18l-.05.38c0-.06.04-.12.04-.17-.11.24-.13.3-.06.18-.16.19-.2.25-.13.17.08-.08.02-.04-.17.12.09-.05.07-.05-.06.01-.26.11.01,0,.08,0l-.37.05s.09,0,.14,0l-.37-.05c.18.04-.12-.05-.15-.07-.13-.07-.22-.18-.31-.29.1.13-.04-.1-.06-.13.07.15,0-.1-.01-.15.02.17.02-.1.03-.14-.03.16.05-.08.06-.11-.07.14.05-.06.08-.09l.16-.12c-.08.04-.07.04.04-.01.19-.08.05-.02,0-.02-.14.02.28-.02.14-.02-.06,0-.04,0,.07.01.06,0,.12.01.18.05.11.05.18.11.26.2.11.12,0-.06.06.1.04.11.05.19.04.3,0,.14.04-.02-.02.08-.09.16-.11.21-.33.3.32-.12.61-.4.59-.78-.02-.34-.24-.7-.59-.78h0Z" fill="#3a0a0a"/><path d="m154.47,186.54c.51-1.29.23-2.93-.73-3.93s-1.94-1.79-3.31-1.97c-.81-.11-1.9.06-2.69.28-1.18.34-2.51,1.41-3.02,2.53s-.51,2.45,0,3.56c.09.2.2.39.38.51.29.2.69.14,1.01-.02s.59-.39.91-.55c.63-.31,1.41-.28,2.01.09.63.39,1.02,1.08,1.62,1.52,1.11.81,2.71.31,3.56-.76.77-.96.84-2.44.19-3.79" fill="#3a0a0a"/><path d="m111.18,173.27c-.77.05-1.44.71-1.43,1.51.02,1.07,1.22,1.65,2.16,1.42,1.03-.26,1.6-1.4,1.4-2.39s-1.03-1.71-1.97-1.93c-1.16-.27-2.38.32-2.7,1.51-.26.95.09,2.12.85,2.75.89.75,2.21.86,3.11.06.79-.71.95-1.93.43-2.85s-1.7-1.6-2.77-1.59c-1.42.01-2.66,1.59-1.77,2.9.39.57,1.07.85,1.73.57s.98-.95.8-1.63c.26.96-.34.67-.75,1.05-.14-.03-.13-.02.05.02l.14.05c-.27-.12.16.08.15.11,0,.03-.14-.29-.06-.03-.15-.48.07-.8.6-.92-.27.06.04-.02.14.04.07.03.12.07.16.13-.07-.13-.08-.16-.04-.07.04.09.04.06,0-.08.03.06.03.12.02.18-.01.14-.08.26-.2.36-.11.12-.23.19-.37.19-.11,0-.09,0,.07,0-.14-.02-.16-.01-.06.01.13.02-.06-.06-.12-.1-.03-.04-.04-.09-.05-.14.03.13.04.15.02.05.01-.18.03-.25.16-.39.19-.2.27-.2.52-.09.23.12.27.13.14.02.1.36.15.44.15.23l-.11.41-.17.11c.76-.26.7-1.54-.2-1.48h0Z" fill="#3a0a0a"/><path d="m113.98,169.02c-.59.52-.36,1.51.2,1.94.7.54,1.65.31,2.16-.36,1.23-1.59-.75-3.72-2.49-3.23-.89.25-1.5,1.15-1.51,2.05,0,.79.41,1.55,1.07,1.98,1.45.95,3.42-.24,3.44-1.92.03-2.06-2.83-3.09-4-1.33-.65.98.43,2.4,1.55,2.02.09-.03.18-.05.27-.09.17-.07-.12.02-.16.02.19,0-.12-.02-.16-.03.19.05-.11-.04-.13-.07,0,0,.27.21.04,0-.07-.04-.12-.09-.15-.15-.07-.1-.09-.12-.05-.06.04.06.03.04-.03-.07-.04-.07-.06-.14-.06-.21,0-.12-.01-.15-.01-.07,0,.08,0,.05.01-.07,0-.08.02-.15.06-.21.05-.11.06-.13.02-.06-.1.14.21-.21.08-.09s.26-.15.1-.07.3-.09.12-.05c-.08.02-.05.02.07,0,.07-.02.15-.02.22,0,.12.02.15.03.08,0-.07-.02-.05-.01.07.03.07.02.14.05.19.11.1.09.11.09.03.02.03.03.19.28.09.11s.04.1.05.14c-.06-.19.01.12.01.16,0-.2-.02.13-.03.16.04-.18-.04.1-.06.13-.06.1-.15.19-.24.25s-.22.09-.33.1c-.03,0-.29-.03-.28-.08,0,0,.15.09.16.09-.05,0-.2-.18-.07-.03l-.1-.12c.05.1.05.1,0,0-.03-.12-.06-.21-.05-.33,0-.05.09-.26.05-.19-.05.08-.02.05.1-.09.09-.14.22-.2.4-.17.27-.04.45-.03.59.23.11.21.06.09.04,0-.1-.67-.99-.74-1.4-.37h0Z" fill="#3a0a0a"/><path d="m119.48,167.54c-.52.31-.72.95-.56,1.53.22.77,1.07,1.18,1.82.96s1.3-.96,1.26-1.77c-.04-.86-.68-1.69-1.53-1.9-1-.25-1.96.31-2.28,1.28-.22.67-.07,1.43.36,1.99.51.66,1.34.97,2.16.75.74-.2,1.34-.81,1.52-1.55.24-.95-.29-1.91-1.17-2.28-.37-.16-.73-.21-1.13-.16-.58.08-.98.39-1.31.86s-.21,1.3.22,1.7,1.18.58,1.7.22c.15-.1-.18.07-.19.07h.05c.1-.04.07-.04-.08-.01-.32.04.1.04-.21,0-.27-.04-.11-.02-.05,0,.13.04-.36-.18-.16-.06-.15-.09-.26-.21-.36-.36.1.15-.07-.18-.07-.19-.05-.17-.03-.34,0-.51-.04.2.1-.2.15-.26.19-.25-.13.07.12-.12.1-.08.18-.11.32-.13.08-.01.51.08.31,0,.16.06.29.13.42.24-.14-.12.09.13.1.15-.13-.18.09.3.05.14-.02-.06-.04-.22,0,.03.04.31.04-.12,0,.19s.07-.1-.05.17-.02.01.02,0l-.13.18-.41.25c-.18.05-.44.03-.61-.06.15.08-.03-.03-.07-.07.14.12-.06-.1-.09-.16-.09-.17-.01.1-.03-.1,0-.13.01-.22.04-.35.04-.1.04-.11,0-.02l.1-.13c.07-.07.17-.12.27-.15.2-.05.43,0,.57.15.08.12.1.14.06.08-.02-.04-.02-.03.01.03.05.17.09.24-.02.45.16-.32.14-.71-.13-.97-.25-.25-.67-.31-.97-.13h0Z" fill="#3a0a0a"/><path d="m123.96,174.92c-.49-1.3-1.8-2.33-3.19-2.42s-2.64-.01-3.78.77c-.67.46-1.37,1.32-1.8,2.02-.64,1.04-.9,2.74-.53,3.9s1.27,2.15,2.39,2.63c.2.08.41.15.62.12.35-.05.6-.37.74-.7s.17-.69.3-1.02c.25-.65.86-1.16,1.55-1.29.73-.14,1.48.11,2.22.03,1.36-.15,2.22-1.59,2.12-2.96-.08-1.23-1.02-2.37-2.42-2.93" fill="#3a0a0a"/><path d="m126.34,86.05c.52-1.74-1.26-3.11-2.86-3.06-1.98.06-3.34,1.46-4.46,2.93s-2.2,3.45-1.46,5.31c.78,1.97,3.65,2.85,5.45,1.76.97-.59.68-1.89-.3-2.26-.61-.23-1.22-.1-1.85-.2-.29-.05-.64-.15-.71-.4-.1-.33.06-.83.16-1.15.16-.55.43-1.04.72-1.53.52-.87,1.16-1.89,2.11-2.36s2.05-.13,2.33.96c.11.44.75.42.87,0h0Z" fill="#3a0a0a"/><path d="m132.03,91.76c.41-2.07-1.53-3.33-3.42-2.93-1,.21-1.87.87-2.61,1.55-.69.63-1.32,1.41-1.55,2.33s-.02,1.99.65,2.71c.77.83,1.99.96,3.03.67,2.03-.55,3.36-2.09,4.4-3.81l-1.57-.92c-.49.94-1.24,1.73-1.49,2.79s-.13,2.37.67,3.11c.46.42,1.02.45,1.56.2.52-.24.73-.94.59-1.46-.12-.42-.43-.72-.5-1.16-.14-.9.23-1.85.73-2.56.63-.89-.69-1.74-1.43-1.1-.84.73-1.77,1.48-2.74,2.03-.36.2-.86.52-1.3.48-.23-.02-.23-.1-.24-.34-.03-.8,1.04-1.73,1.65-2.16.42-.3.94-.55,1.47-.52s1.17.35,1.2.96c.02.49.79.64.89.12h0Z" fill="#3a0a0a"/><path d="m134.35,92.33c1.13.88,2.33,1.63,3.63,2.23.65.3,1.32.58,2,.82s1.6.69,2.31.4,1.07-1.14.46-1.74c-.55-.53-1.29-.51-2.01-.65-.66-.13-1.31-.29-1.96-.48-1.3-.37-2.56-.87-3.78-1.43-.51-.24-1.18.44-.66.85h0Z" fill="#3a0a0a"/><path d="m139.51,90.11c-1.39,2.36-3.38,4.29-4.83,6.61-.72,1.15-1.15,2.79-.02,3.85.6.56,1.39.71,2.18.79.88.08,1.73.03,2.42-.57.57-.49.47-1.68-.26-1.99-.68-.29-1.24-.2-1.95-.25-.05,0-.64-.11-.63-.11.09-.1.3.37.28.37-.17-.08.95-2.21,1.08-2.47.99-1.87,2-3.8,2.6-5.85.15-.53-.6-.84-.88-.37h0Z" fill="#3a0a0a"/><path d="m149.91,93.07c1.68.94,3.38,1.82,5.05,2.77l.83-1.96c-1.2-.22-2.48-.37-3.58.28-.57.33-.99.85-1.43,1.33-.5.55-1,1.11-1.5,1.66-.98,1.08-1.91,2.21-2.84,3.32-.48.58-.95,1.16-1.42,1.75-.55.68-1.15,1.32-1.48,2.13-.42,1.05,1.08,2.23,1.99,1.53,1.06-.82,1.78-2.16,2.55-3.25s1.5-2.14,2.21-3.23,1.34-2.14,2.01-3.2c.31-.5.55-.95,1.21-.88.51.05,1,.29,1.45.51,1.38.69,2.28-1.37.83-1.96-1.76-.73-3.59-1.39-5.44-1.85-.62-.15-1.02.72-.44,1.05h0Z" fill="#3a0a0a"/><path d="m148.34,101.48c1.44.38,2.91.73,4.23,1.43.66.35,1.49.05,1.7-.69s-.36-1.46-1.11-1.46c-1.51,0-2.96-.38-4.42-.72-.93-.22-1.33,1.19-.4,1.44h0Z" fill="#3a0a0a"/><path d="m155.25,103.98c-.59.13-1.01.24-1.43.73-.39.45-.71,1.01-.82,1.6-.27,1.46.87,2.56,2.28,2.62,1.23.05,2.41-.7,3.04-1.73.82-1.34.55-3.16-1.02-3.74-1.06-.39-2.04,1.23-1.14,1.95.36.29.39.48.07.88-.2.25-.54.46-.86.47-.38.02-.44-.09-.39-.43.04-.29.27-1.1.6-1.21.72-.24.43-1.29-.31-1.14h0Z" fill="#3a0a0a"/><path d="m161.44,106.85c-1.34.24-2.61,1.58-2.36,3s1.72,2.11,3.02,2.01,2.5-.99,2.78-2.32c.29-1.39-.3-3.17-1.9-3.31-.99-.08-1.37,1.06-1.03,1.8.13.28.38.46.54.71,0,.01.04.18.03.26-.01.21-.17.43-.5.51-.21.05-.65.04-.81-.19.04.06,0-.03.05-.2.03-.11.09-.21.15-.31.16-.24.38-.42.62-.57.78-.46.24-1.55-.59-1.4h0Z" fill="#3a0a0a"/><path d="m170.8,112.86c1.18-1.2.43-3.23-1.13-3.65-1.75-.47-3.64.74-4.44,2.27-.96,1.84.32,4.08,2.5,3.59.93-.21,1.72-.89,2.42-1.5s1.34-1.34,1.96-2.06c.75-.88,1.45-1.8,2.16-2.71.36-.46.73-.94,1.02-1.44.32-.55.64-1.17,1.12-1.6.51-.46-.18-1.39-.75-.97-1.77,1.31-3.28,3.12-4.5,4.94s-2.28,3.96-3.05,6.11c-.62,1.71,2.26,2.54,2.74.76.54-2,1.29-3.9,2.25-5.73s2.2-3.51,3.4-5.23l-1.07-.62c-.51.76-1.41,1.28-2.06,1.91s-1.22,1.25-1.81,1.88c-1.09,1.16-2.14,2.38-3.35,3.43-.25.22-.52.45-.82.59-.11.05-.22.1-.35.12-.12.02.02-.07.05.03-.16-.46.31-.91.62-1.21.37-.35.88-.67,1.41-.63s1.14.47.81,1.08c-.29.53.41,1.1.85.65h0Z" fill="#3a0a0a"/><path d="m92.61,163.04c-.49,2.5-.86,5.02-1.21,7.54-.18,1.29-.37,2.57-.48,3.87-.06.63-.11,1.26-.17,1.9-.03.31-.08.63-.06.95.02.47.18.77.43,1.15.37.54,1.23.79,1.72.22.24-.27.5-.52.6-.88s.09-.73.11-1.08c.02-.63.05-1.27.07-1.9.05-1.3.05-2.61.07-3.91.03-2.57.09-5.13.08-7.7,0-.64-1.03-.83-1.16-.16h0Z" fill="#3a0a0a"/><path d="m95.26,171.79c-.24,1.25-.41,2.51-.56,3.78-.08.64-.14,1.28-.21,1.92s-.19,1.28-.13,1.92.46,1.21,1.14,1.29c.61.07,1.31-.29,1.44-.94.26-1.3.14-2.75.06-4.07s-.21-2.61-.44-3.9c-.12-.65-1.18-.64-1.3,0h0Z" fill="#3a0a0a"/><path d="m98.13,175.79c.02,1.09-.02,2.17-.05,3.26s-.12,2.23.08,3.36c.2,1.2,2.07,1.11,2.34,0s.19-2.31.08-3.47-.3-2.28-.5-3.41-1.95-.83-1.94.26h0Z" fill="#3a0a0a"/><path d="m106.92,181.89c6.55,3.73,13.22,7.19,20.07,10.34s13.85,6.14,20.88,8.95c3.92,1.57,7.87,3.18,11.88,4.49.71.23,1.52-.27,1.71-.97.22-.79-.27-1.43-.97-1.71-3.51-1.38-7.08-2.6-10.61-3.93-3.45-1.31-6.89-2.66-10.31-4.05-6.89-2.8-13.71-5.79-20.5-8.84-3.88-1.74-7.78-3.42-11.65-5.17-.59-.26-1.1.55-.51.88h0Z" fill="#3a0a0a"/><path d="m164.22,207.18c.19.47.53.65.94.92.45.31.91.62,1.38.9.97.59,1.97,1.13,2.99,1.63s1.99.94,3,1.38c1.08.47,2.16,1.01,3.28,1.4,1.52.53,2.53-1.87,1.1-2.61-.98-.5-2.03-.89-3.04-1.32s-2.11-.89-3.19-1.3-2.06-.74-3.12-1.05c-.53-.15-1.05-.29-1.59-.41-.47-.11-.97-.32-1.43-.14-.22.09-.43.33-.33.59h0Z" fill="#3a0a0a"/><path d="m167.63,204.08c1.39.67,2.83,1.26,4.25,1.84.7.29,1.4.58,2.1.86s1.48.72,2.24.83c.65.1,1.29-.11,1.55-.76.24-.59.04-1.32-.54-1.64-.71-.4-1.57-.56-2.36-.77l-2.18-.59c-1.49-.4-2.99-.81-4.5-1.13-.77-.16-1.36.96-.57,1.35h0Z" fill="#3a0a0a"/><path d="m172.14,201.7c.97.48,1.95.94,2.94,1.38s2.21,1.28,3.29,1.04c.68-.15,1.11-1.09.69-1.69s-.89-.74-1.54-.95l-1.55-.5c-1.04-.33-2.07-.64-3.12-.94-.96-.27-1.64,1.19-.7,1.66h0Z" fill="#3a0a0a"/><path d="m174.19,179.41c.2,2.77.2,5.55-.01,8.32-.1,1.32-.26,2.64-.44,3.95-.21,1.44-.51,2.86-.49,4.32.01,1.21,1.55,1.25,1.97.27.57-1.36.72-2.81.87-4.27s.2-2.84.2-4.27c.01-2.85-.23-5.69-.67-8.51-.13-.8-1.47-.62-1.41.19h0Z" fill="#3a0a0a"/><path d="m171.31,185.9c-.21,2.54-.57,5.06-1.03,7.57-.22,1.21-.47,2.41-.75,3.61-.29,1.29-.73,2.57-.9,3.88-.07.52.46,1,.93,1.05.57.07.97-.26,1.17-.77.47-1.16.64-2.49.86-3.72.24-1.3.42-2.61.57-3.92.29-2.56.36-5.14.3-7.71-.02-.75-1.1-.73-1.16,0h0Z" fill="#3a0a0a"/><path d="m166.39,192.98c-.32,1.53-.64,3.06-1.05,4.56-.2.72-.41,1.44-.65,2.15-.26.77-.61,1.55-.76,2.35-.08.41.04,1,.48,1.18,1.46.62,1.92-1.5,2.16-2.43.21-.84.39-1.68.54-2.53.3-1.7.48-3.4.43-5.13-.02-.63-1-.82-1.14-.15h0Z" fill="#3a0a0a"/><path d="m108.28,60.02c1.85.31,3.69.67,5.51,1.14.88.23,1.75.48,2.61.76s2.13,1.01,3.04.65c.68-.27,1.14-1.02.7-1.73-.58-.93-1.86-1.05-2.86-1.27s-1.94-.37-2.92-.51c-1.96-.27-3.94-.41-5.92-.33-.7.03-.94,1.16-.17,1.29h0Z" fill="#3a0a0a"/><path d="m107.94,63.05c2.48.29,4.75,1.46,7,2.44.63.28,1.37.19,1.74-.46.32-.55.17-1.45-.46-1.74-1.28-.6-2.72-.94-4.11-1.18s-2.77-.24-4.18-.29c-.81-.03-.77,1.14,0,1.24h0Z" fill="#3a0a0a"/><path d="m107.15,66.64c1.52.07,2.97.39,4.41.88.67.23,1.34.49,1.98.79.72.34,1.4.79,2.15,1.06,1.38.48,2.1-1.54.96-2.28-.68-.44-1.57-.66-2.34-.88s-1.56-.4-2.35-.53c-1.58-.27-3.2-.38-4.81-.41-.89-.02-.88,1.33,0,1.37h0Z" fill="#3a0a0a"/><path d="m105.23,91.81c.88-3.63,1.68-7.29,2.44-10.94.37-1.81.75-3.62,1.12-5.44.19-.91.37-1.81.55-2.72s.58-1.99.37-2.91c-.2-.86-1.32-.88-1.76-.23-.51.75-.51,1.94-.66,2.82s-.3,1.75-.45,2.62c-.32,1.87-.63,3.74-.95,5.61-.62,3.67-1.19,7.36-1.68,11.05-.08.59.89.7,1.02.14h0Z" fill="#3a0a0a"/><path d="m111.25,80.39c.42-1.24.86-2.46,1.28-3.7s.91-2.48.9-3.8c0-.86-1.15-1.14-1.59-.43-.7,1.11-.93,2.44-1.22,3.7s-.56,2.55-.86,3.82c-.23.98,1.18,1.36,1.5.41h0Z" fill="#3a0a0a"/><path d="m127.56,65.38c1.13.33,2.22.77,3.32,1.2s2.22.78,3.32,1.18c2.21.79,4.42,1.59,6.61,2.43,4.35,1.67,8.67,3.43,12.91,5.36,2.41,1.09,4.78,2.28,7.18,3.4.61.29,1.35.17,1.71-.45.33-.57.15-1.39-.45-1.71-4.21-2.26-8.67-4.15-13.11-5.92s-8.86-3.28-13.41-4.52c-1.27-.35-2.55-.71-3.84-1s-2.68-.49-4.01-.81c-.56-.14-.79.7-.24.86h0Z" fill="#3a0a0a"/><path d="m169.51,82.41c1.88.8,3.63,1.82,5.45,2.74s3.7,1.72,5.57,2.54,3.74,1.66,5.62,2.45l2.89,1.22c.45.19.89.38,1.34.56.5.21,1.04.52,1.58.59,1.57.21,2.36-1.55,1.07-2.53-.46-.35-1.12-.53-1.65-.75-.45-.18-.89-.36-1.34-.54l-2.79-1.12c-1.9-.76-3.81-1.49-5.72-2.22s-3.73-1.45-5.64-2.07-3.99-1.16-5.92-1.93c-.6-.24-1.04.79-.44,1.05h0Z" fill="#3a0a0a"/><path d="m182.71,92.89c1.11.6,2.17,1.27,3.25,1.92.54.33,1.07.66,1.62.98s1.13.72,1.75.9c.58.16,1.21-.15,1.44-.71.24-.61,0-1.14-.5-1.52s-1.2-.59-1.78-.83c-.54-.22-1.08-.44-1.62-.66-1.13-.46-2.27-.89-3.38-1.4-.87-.4-1.64.84-.77,1.31h0Z" fill="#3a0a0a"/><path d="m102.98,101.64c-.98,3.97-1.99,7.91-2.83,11.91-.83,3.96-1.54,7.94-2.18,11.93-.38,2.33-.69,4.66-.94,7.01-.12,1.12,1.77,1.38,1.97.27,1.44-7.97,2.62-15.99,3.92-23.98.37-2.28.69-4.57,1.1-6.84.12-.67-.87-.97-1.04-.29h0Z" fill="#3a0a0a"/><path d="m95.38,140.85c-.18,1.12-.45,2.25-.53,3.38-.04.59.53,1.1,1.1,1.1.64,0,1.05-.5,1.1-1.1.09-1.04,0-2.12-.01-3.16,0-.92-1.5-1.19-1.66-.22h0Z" fill="#3a0a0a"/><path d="m181.82,106.59c-.84,1.87-1.41,3.91-1.97,5.87s-1.11,4.1-1.54,6.17c-.87,4.14-1.5,8.33-1.75,12.55-.03.6.54,1.11,1.11,1.11.65,0,1.05-.51,1.11-1.11.42-4.05.9-8.09,1.62-12.1.36-1.98.73-3.95,1.17-5.91s1.06-4.05,1.43-6.09c.12-.66-.86-1.21-1.18-.5h0Z" fill="#3a0a0a"/><path d="m176.35,138.78c-.38,1.6-.8,3.63-.11,5.19.45,1.02,2.1.48,2.06-.56-.03-.72-.31-1.4-.39-2.11s-.08-1.39.04-2.07c.19-1.03-1.35-1.49-1.6-.44h0Z" fill="#3a0a0a"/><path d="m192.23,111.86c.45.04.92-.09,1.37-.16s.92-.13,1.39-.2c.86-.12,1.73-.22,2.6-.29s1.77-.12,2.65-.15,2.04.17,2.89-.15c1.17-.44,1.28-2.09,0-2.49-.89-.28-1.99,0-2.89.11-.99.13-1.97.28-2.95.46-.91.17-1.81.37-2.71.59s-1.97.4-2.72.89c-.64.43-.36,1.33.38,1.39h0Z" fill="#3a0a0a"/><path d="m192.9,116.4c1.56.04,3.21-.37,4.76-.6.76-.11,1.52-.21,2.28-.32.87-.12,2.01-.07,2.43-1,.21-.45.23-1.04-.18-1.41-.8-.72-1.65-.39-2.57-.12-.81.23-1.61.46-2.42.69-1.53.43-3.21.74-4.65,1.42-.67.32-.3,1.31.36,1.33h0Z" fill="#3a0a0a"/><path d="m192.94,121.06c1.75-.44,3.51-.82,5.29-1.11.83-.14,1.67-.27,2.51-.37,1-.12,2.29,0,2.84-1,.25-.46.19-1.06-.19-1.43-.83-.82-2-.36-3-.14-.89.2-1.79.42-2.67.65-1.78.47-3.53,1.03-5.26,1.65-1.09.39-.67,2.05.48,1.76h0Z" fill="#3a0a0a"/><path d="m193.43,130.43c.04,2.2.11,4.41.18,6.61.03,1.1.07,2.2.1,3.31s-.1,3.17,1.55,2.95,1.07-2.12.91-3.16-.31-2.17-.46-3.26c-.31-2.21-.62-4.42-.96-6.62-.11-.75-1.33-.56-1.31.18h0Z" fill="#3a0a0a"/><path d="m190.19,136.22c.09,1.13,0,2.24-.08,3.37-.04.54-.08,1.09-.14,1.63-.06.57-.24,1.17-.19,1.74.1,1.33,1.96,1.68,2.37.32.19-.62.14-1.31.13-1.95,0-.58-.03-1.17-.08-1.75-.1-1.2-.37-2.38-.58-3.56-.14-.8-1.5-.63-1.44.19h0Z" fill="#3a0a0a"/><path d="m193.57,159.33c.31,2.47.41,4.96.48,7.45s.11,4.84.05,7.26-.21,4.85-.45,7.26c-.24,2.48-.61,4.94-.71,7.43-.05,1.23,1.73,1.39,2.08.28.77-2.43,1.07-4.95,1.29-7.48s.3-4.99.28-7.49-.14-5.01-.45-7.5-.78-4.94-1.24-7.4c-.14-.74-1.43-.58-1.34.18h0Z" fill="#3a0a0a"/><path d="m190.25,173.57c-.06,1.65-.17,3.29-.31,4.94l-.21,2.41c-.07.84-.21,1.69-.1,2.53.07.55.37,1.01.96,1.09.51.06,1.11-.24,1.21-.79.32-1.65.07-3.44.02-5.11s-.07-3.37-.03-5.06c.02-.99-1.49-.98-1.53,0h0Z" fill="#3a0a0a"/><path d="m192.55,193.64c-.53,2.74-1.27,5.45-1.84,8.18-.28,1.33-.55,2.66-.81,4l-.41,2.12c-.14.74-.42,1.6-.13,2.33s1.33,1.26,1.97.52c.52-.61.6-1.26.71-2.02l.31-2.15c.2-1.42.38-2.84.57-4.26.36-2.78.53-5.59.92-8.37.12-.83-1.12-1.22-1.29-.36h0Z" fill="#3a0a0a"/><path d="m187.99,201.3c-.31,1.56-.64,3.11-.99,4.66s-.88,3.14-.94,4.73c-.05,1.28,1.77,1.42,2.15.29.48-1.45.52-3.09.72-4.61s.44-3.08.69-4.62c.17-1.05-1.41-1.53-1.63-.45h0Z" fill="#3a0a0a"/><path d="m184.49,200.13c-.36,2.27-.89,4.5-1.45,6.73-.28,1.1-.57,2.19-.89,3.27-.15.52-.31,1.05-.47,1.57-.19.61-.49,1.26-.44,1.9.1,1.19,1.46,1.51,2.15.58.38-.51.45-1.23.59-1.85.12-.53.23-1.07.34-1.61.24-1.15.45-2.3.64-3.46.38-2.31.61-4.63.86-6.96.08-.75-1.22-.94-1.34-.18h0Z" fill="#3a0a0a"/><path d="m185.01,133.32c-.24,4.14-.63,8.27-.86,12.41-.22,4.09-.41,8.19-.54,12.29-.07,2.37-.17,4.75.13,7.11.06.47.32.88.83.94.43.05.97-.21,1.05-.69.74-4.1.57-8.39.61-12.54s.03-8.27-.04-12.41c-.04-2.37-.13-4.74-.14-7.11,0-.68-1-.67-1.04,0h0Z" fill="#3a0a0a"/><path d="m183.37,169.95c.06,1.68-.15,3.38-.05,5.06.03.46.34,1.05.86,1.13.22.03.4.05.62,0,.48-.1.88-.64.86-1.13-.09-1.69-.48-3.37-.61-5.06-.08-1.06-1.72-1.09-1.68,0h0Z" fill="#3a0a0a"/><path d="m205.61,169.46c.21,4.24-.14,8.58-.64,12.79s-1.08,8.31-1.96,12.42c-.25,1.16-.52,2.33-.81,3.48s-.76,2.49-.72,3.71,1.53,1.55,2.17.59c.59-.88.86-2.09,1.11-3.11s.49-2.1.72-3.15c.45-2.15.82-4.31,1.1-6.49.57-4.28.75-8.55.6-12.86-.09-2.47-.33-4.92-.51-7.38-.05-.68-1.1-.69-1.07,0h0Z" fill="#3a0a0a"/><path d="m201.03,189.19c-.48,3.13-1.42,6.24-2.31,9.28-.44,1.5-.93,2.98-1.42,4.47s-1.26,3.07-1.53,4.66c-.19,1.14,1.26,1.87,1.93.81.87-1.38,1.27-3.09,1.74-4.65s.85-3.16,1.18-4.77c.67-3.21.9-6.43,1.21-9.69.04-.45-.73-.56-.8-.11h0Z" fill="#3a0a0a"/><path d="m204.75,141.45c.61,2.67.95,5.41,1.19,8.14.11,1.32.19,2.64.25,3.96.03.7.05,1.4.06,2.1s-.03,1.45.17,2.15c.27.95,1.79,1.03,2.01,0,.29-1.35-.04-2.89-.19-4.25s-.36-2.8-.6-4.19c-.48-2.76-1.16-5.47-1.84-8.2-.17-.68-1.21-.39-1.05.29h0Z" fill="#3a0a0a"/><path d="m202.15,150.69c.18,1.27.13,2.65.45,3.88.27,1.01,1.89.83,1.85-.25-.03-.69-.23-1.37-.37-2.04s-.27-1.34-.38-2.02c-.07-.43-.6-.66-.99-.56-.46.12-.62.56-.56.99h0Z" fill="#3a0a0a"/><path d="m166.14,75.41l-1.73,3.87c-.56,1.26-1.33,2.63-1.41,4.03-.04.72,1.02,1.22,1.5.62.88-1.1,1.23-2.59,1.65-3.92l1.29-4.06c.24-.76-.97-1.3-1.3-.55h0Z" fill="#3a0a0a"/><path d="m169.16,76.12c-.59,1.24-1.17,2.48-1.73,3.74-.27.61-.55,1.21-.82,1.82-.3.67-.65,1.35-.78,2.08-.22,1.33,1.47,2.19,2.25.95.73-1.16,1.02-2.68,1.42-3.98s.81-2.64,1.19-3.96c.26-.89-1.12-1.52-1.53-.65h0Z" fill="#3a0a0a"/><path d="m180.47,87.64c-.39.86-.8,1.71-1.18,2.57s-.96,1.82-.96,2.79c0,.47.34.92.79,1.04.5.14.93-.11,1.22-.5.54-.7.67-1.8.87-2.65s.41-1.79.62-2.68c.18-.78-1-1.38-1.37-.58h0Z" fill="#3a0a0a"/><path d="m176.79,87.33c-.72.93-1.54,2.09-1.72,3.28-.06.39-.04.88.31,1.16.95.75,1.86.14,2.1-.94.18-.83.42-1.59.83-2.34.5-.91-.81-2.06-1.51-1.17h0Z" fill="#3a0a0a"/><path d="m191.83,54.72c-.7,1.81-1.41,3.9-1.41,5.86,0,1.37,1.99,1.33,2.11,0,.08-.92.05-1.84.17-2.76s.37-1.8.66-2.68c.33-.98-1.17-1.36-1.53-.42h0Z" fill="#3a0a0a"/><path d="m195.68,56.54c-.3,1.45-.61,2.88-.79,4.35-.15,1.25,1.96,1.53,2.2.3.28-1.45.41-2.92.58-4.38.13-1.13-1.76-1.38-1.99-.27h0Z" fill="#3a0a0a"/><path d="m111.66,36.55c13.43,6.24,27.75,10.9,42.24,13.95,1.31.28,1.88-1.7.56-2.02-14.41-3.55-28.46-7.83-42.47-12.69-.44-.15-.75.56-.32.76h0Z" fill="#fcd0c1"/><path d="m161.74,52.14c7.23,2.65,14.66,4.71,21.98,7.08,1.59.51,2.32-2.12.69-2.5-7.49-1.77-14.91-3.85-22.46-5.33-.5-.1-.68.58-.21.75h0Z" fill="#fcd0c1"/><path d="m109.68,99.84c-.94,1.63-1.62,3.37-2.36,5.1-.81,1.91-1.66,3.66-1.93,5.73-.23,1.75,1.54,3.35,3.12,3.54,1.92.23,3.25-.87,3.95-2.58s.65-3.68.86-5.44.44-3.47.43-5.23c0-2.16-3-3.01-4.09-1.11h0Z" fill="#fcd0c1"/><path d="m116.08,105.45c-.25.45-.49.91-.74,1.36l.53-.69-.09.1c-.82.98-1.25,2.11-.9,3.4.32,1.17,1.26,2.11,2.44,2.44s2.52-.02,3.4-.9c.82-.82,1.33-2.26.9-3.4-.19-.5-.21-1.1-.3-1.63-.07-.44-.43-.96-.74-1.27-.45-.45-1.03-.71-1.65-.79-1.1-.15-2.31.36-2.86,1.37h0Z" fill="#fcd0c1"/><path d="m98.24,153.59c-.61,1.36-1.26,2.71-1.81,4.09-.67,1.7-1.41,3.39-.25,5.08.85,1.23,2.62,2,4,1.05,1.82-1.26,1.95-2.79,1.95-4.84,0-1.46-.13-2.92-.22-4.38-.11-1.76-2.81-2.92-3.67-1h0Z" fill="#fcd0c1"/><path d="m103.46,160.36c-.11.38-.19.76-.33,1.13-.31.85.04,2.01.69,2.61.53.48,1.17.79,1.9.79.69,0,1.41-.3,1.9-.79.63-.63,1.02-1.74.69-2.61-.14-.37-.22-.75-.33-1.13-.27-.96-1.24-1.77-2.26-1.72s-1.97.7-2.26,1.72h0Z" fill="#fcd0c1"/><text transform="translate(86.29 260.94)" fill="#231f20" font-family="Itim-Regular, Itim" font-size="60"><tspan x="0" y="0">Shop</tspan></text></g></g></svg>